<svg viewBox="0 0 512 512" xml:space="preserve" xmlns="http://www.w3.org/2000/svg" enable-background="new 0 0 512 512"><path d="M108.596 291.986c-5.942-1.846-10.255-4.308-16.199-9.437-5.127-5.948-26.667-30.765-26.667-30.765l33.432-31.591H81.115l-29.739 29.949c-1.851.818-2.671 1.642-3.493 2.459v-26.458c0-3.282-2.457-5.95-5.949-5.95H26.55c-.814 0-.814.822 0 .822 2.464 1.846 4.313 2.666 4.313 6.974v64.816h17.02V256.91c.822.818 1.643 1.641 3.493 3.486 0 0 17.839 21.331 20.512 23.793 7.583 7.795 17.839 11.074 36.709 9.436 1.641-.818 1.641-1.639-.001-1.639zm34.053-74.252c-23.798 0-41.846 17.024-41.846 38.355 0 22.152 16.205 39.176 41.846 39.176 24.818 0 42.665-17.023 42.665-39.176-.001-21.33-16.205-38.355-42.665-38.355zm0 69.945c-14.563 0-22.156-13.743-22.156-29.948 0-18.664 7.593-32.407 22.156-32.407 14.561 0 23.175 13.743 23.175 29.947 0 19.485-8.614 32.408-23.175 32.408zm293.113-67.485h-10.256l-18.054 41.025c-.818 1.641-.818 3.484-1.637 4.308 0-.823-.823-1.847-1.851-3.487l-15.385-36.717c-.818-2.461-3.277-5.129-6.77-5.129h-15.385c-.813 0-.813.822-.813.822 2.663 1.846 3.486 2.666 3.486 6.974l-11.079 64.816h11.079l7.583-46.151c0-1.64.823-5.127.823-5.949 1.027 1.642 1.846 3.488 2.669 5.949l19.689 46.151h5.128l19.485-46.972c1.851-2.461 2.669-4.307 2.669-5.948.813 1.642.813 4.308 1.636 6.769l6.979 46.151h17.839l-11.069-65.844c.003-3.279-3.489-6.768-6.766-6.768zm44.298 0h-16.202c-.813 0-.813.822 0 .822 1.641 1.846 4.315 2.666 4.315 6.974v64.816h17.839v-66.662c0-3.282-2.46-5.95-5.952-5.95zM255.462 262.04v4.305c-1.642-1.641-3.485-3.484-5.128-5.946l-31.589-35.895c-1.643-3.487-4.307-4.31-8.613-4.31h-15.383c-.823 0-.823.822-.823.822 2.667 1.846 4.308 2.666 4.308 6.974v64.816h11.899v-52.92c2.664 2.461 5.128 6.769 7.792 9.435l37.537 43.485h5.95c3.482 0 5.946-2.666 5.946-5.949v-66.663h-11.896v41.846zm59.686-41.846h-13.533c-.823 0-.823.822 0 .822 1.641 1.025 2.464 4.307 1.641 6.974l-30.77 64.816h13.744l7.592-17.023h32.61l7.593 17.023h19.689l-31.592-68.303c-.817-1.641-3.481-4.309-6.974-4.309zm-17.843 46.974 11.079-24.82c.824-1.642 1.637-2.461 1.637-3.281 0 .82 1.027 2.462 1.851 3.281l10.252 24.82h-24.819z" fill-rule="evenodd" clip-rule="evenodd" fill="#87827e" class="fill-cb2425"></path></svg>