<svg viewBox="0 0 24 24" xml:space="preserve" xmlns="http://www.w3.org/2000/svg"><path d="M17 22H7a5 5 0 0 1-5-5V7a5 5 0 0 1 5-5h10a5 5 0 0 1 5 5v10a5 5 0 0 1-5 5z" fill="#242423" class="fill-ffffff"></path><radialGradient cx="2.458" cy="22.208" gradientUnits="userSpaceOnUse" id="a" r="26.815"><stop offset="0" stop-color="#ffffff" class="stop-color-ffd35a"></stop><stop offset=".255" stop-color="#ffffff" class="stop-color-f7964c"></stop><stop offset=".6" stop-color="#ffffff" class="stop-color-f05b70"></stop><stop offset=".717" stop-color="#ffffff" class="stop-color-bd6186"></stop><stop offset=".853" stop-color="#ffffff" class="stop-color-85659b"></stop><stop offset=".951" stop-color="#ffffff" class="stop-color-5c66a9"></stop><stop offset="1" stop-color="#ffffff" class="stop-color-4766b0"></stop></radialGradient><path d="M17.022 1H6.978A5.985 5.985 0 0 0 1 6.978v10.044A5.985 5.985 0 0 0 6.978 23h10.044A5.985 5.985 0 0 0 23 17.022V6.978A5.985 5.985 0 0 0 17.022 1zM21 17.022A3.983 3.983 0 0 1 17.022 21H6.978A3.983 3.983 0 0 1 3 17.022V6.978A3.983 3.983 0 0 1 6.978 3h10.044A3.983 3.983 0 0 1 21 6.978v10.044zM12 6c-3.309 0-6 2.691-6 6s2.691 6 6 6 6-2.691 6-6-2.691-6-6-6zm0 10c-2.206 0-4-1.794-4-4s1.794-4 4-4 4 1.794 4 4-1.794 4-4 4zm6-11c-.551 0-1 .449-1 1s.449 1 1 1 1-.449 1-1-.449-1-1-1z" fill="url(#a)" class="fillurl(-a)"></path><linearGradient gradientUnits="userSpaceOnUse" id="b" x1=".534" x2="23.466" y1="6.653" y2="17.347"><stop offset="0" stop-color="#242423" stop-opacity=".2" class="stop-color-ffffff"></stop><stop offset="1" stop-color="#242423" stop-opacity="0" class="stop-color-ffffff"></stop></linearGradient><path d="M17.022 1H6.978A5.985 5.985 0 0 0 1 6.978v10.044A5.985 5.985 0 0 0 6.978 23h10.044A5.985 5.985 0 0 0 23 17.022V6.978A5.985 5.985 0 0 0 17.022 1z" fill="url(#b)" class="fillurl(-b)"></path></svg>