<svg viewBox="0 0 512 512" xml:space="preserve" xmlns="http://www.w3.org/2000/svg" fill-rule="evenodd" clip-rule="evenodd" stroke-linejoin="round" stroke-miterlimit="2"><path d="M76.351 247.022H44.912V256h31.439v35.935H26.947L8.982 273.97v-94.321h35.93v31.439h31.439v35.934ZM211.088 291.935h-107.79L85.333 273.97v-62.882h35.93V256h8.983v-44.912h35.93V256h8.982v-44.912h35.93v80.847Z" fill="#ffffff" fill-rule="nonzero" class="fill-ffffff"></path><path d="M220.07 211.088H256v80.842h-35.93zM220.07 179.649H256v22.456h-35.93z" fill="#ffffff" class="fill-ffffff"></path><path d="M332.351 247.022h-31.439V256h31.439v35.935h-49.404l-17.964-17.965v-94.321h35.929v31.439h31.439v35.934ZM413.193 247.022h-35.93V256h35.93v35.935h-53.895l-17.965-17.965v-44.913l17.965-17.969h53.895v35.934ZM503.018 291.935h-35.93v-44.913h-8.983v44.913h-35.929V179.649h35.929v31.439h26.948l17.965 17.969v62.878Z" fill="#ffffff" fill-rule="nonzero" class="fill-ffffff"></path><path d="M489.544 202.106h-22.456v-31.439h-49.309l-22.677 31.439h-40.295l-13.474 13.473v-13.473h-31.438v-31.439h-98.807v31.439H72.084l-22.68-31.439H0v107.79l62.877 62.877h62.877v-17.965l17.965 17.965h121.264v-17.965l17.964 17.965h58.386v-17.965l17.965 17.965h112.281L512 300.913v-76.351l-22.456-22.456ZM76.351 247.018H44.912V256h31.439v35.93H26.947L8.982 273.965v-94.316h35.93v31.439h31.439v35.93Zm134.737 44.912h-107.79l-17.965-17.965v-62.877h35.93V256h8.983v-44.912h35.93V256h8.982v-44.912h35.93v80.842Zm44.912 0h-35.93v-80.842H256v80.842Zm0-89.824h-35.93v-22.457H256v22.457Zm76.351 44.912h-31.439V256h31.439v35.93h-49.404l-17.964-17.965v-94.316h35.929v31.439h31.439v35.93Zm80.842 0h-35.93V256h35.93v35.93h-53.895l-17.965-17.965v-44.912l17.965-17.965h53.895v35.93Zm89.825 44.912h-35.93v-44.912h-8.983v44.912h-35.929V179.649h35.929v31.439h26.948l17.965 17.965v62.877Z" fill="#87827e" fill-rule="nonzero" class="fill-9146ff"></path></svg>