<svg viewBox="0 0 512 512" xml:space="preserve" xmlns="http://www.w3.org/2000/svg" fill-rule="evenodd" clip-rule="evenodd" stroke-linejoin="round" stroke-miterlimit="2"><path d="M42.332 285.79c2.015 0 3.933-.179 5.737-.584 1.832-.397 3.453-1.034 4.828-1.972 1.367-.901 2.505-2.14 3.328-3.707.826-1.56 1.224-3.586 1.224-6.03 0-4.792-1.353-8.199-4.034-10.264-2.691-2.04-6.273-3.053-10.678-3.053H20.473v25.61h21.859Zm-1.134-39.588c3.625 0 6.631-.859 9.011-2.606 2.355-1.721 3.493-4.559 3.493-8.46 0-2.161-.376-3.951-1.138-5.339-.791-1.389-1.84-2.473-3.157-3.235-1.31-.791-2.791-1.335-4.505-1.632-1.69-.33-3.454-.458-5.268-.458H20.473v21.73h20.725Zm2.648-37.574c4.448 0 8.464.383 12.132 1.181 3.65.773 6.76 2.065 9.394 3.837 2.591 1.771 4.62 4.126 6.073 7.093 1.414 2.924 2.126 6.585 2.126 10.912 0 4.68-1.059 8.592-3.189 11.72-2.14 3.121-5.286 5.679-9.483 7.669 5.715 1.646 9.959 4.542 12.769 8.661 2.823 4.147 4.208 9.108 4.208 14.927 0 4.716-.902 8.775-2.709 12.192-1.822 3.457-4.302 6.26-7.358 8.421-3.081 2.18-6.613 3.783-10.579 4.824a47.373 47.373 0 0 1-12.16 1.564H-.001v-93.001h43.847ZM128.315 250.099c-2.201-2.43-5.919-3.747-10.461-3.747-2.956 0-5.4.497-7.361 1.51-1.918 1.002-3.486 2.244-4.685 3.711-1.195 1.489-2.004 3.064-2.48 4.746-.472 1.639-.759 3.124-.841 4.437h30.09c-.44-4.716-2.054-8.206-4.262-10.657Zm-21.254 35.383c2.773 2.705 6.778 4.065 11.967 4.065 3.729 0 6.95-.941 9.656-2.823 2.68-1.879 4.312-3.887 4.942-5.97h16.29c-2.619 8.106-6.588 13.893-12.01 17.379-5.357 3.496-11.885 5.239-19.497 5.239-5.304 0-10.078-.859-14.365-2.548-4.284-1.714-7.863-4.112-10.876-7.243-2.934-3.143-5.214-6.857-6.839-11.22-1.607-4.341-2.416-9.147-2.416-14.354 0-5.035.841-9.738 2.488-14.086 1.675-4.362 4.001-8.127 7.053-11.284 3.06-3.174 6.685-5.679 10.908-7.512 4.227-1.821 8.886-2.737 14.047-2.737 5.697 0 10.683 1.095 14.963 3.328 4.258 2.204 7.755 5.189 10.5 8.925 2.741 3.729 4.699 7.995 5.919 12.78 1.21 4.778 1.635 9.766 1.288 14.991h-48.592c0 5.326 1.797 10.364 4.574 13.07ZM177.351 208.628v35.069h.422c2.351-3.905 5.318-6.739 8.965-8.496 3.643-1.772 7.2-2.649 10.668-2.649 4.942 0 8.986.648 12.15 1.99 3.164 1.36 5.669 3.203 7.497 5.601 1.8 2.387 3.071 5.304 3.815 8.736.734 3.424 1.11 7.204 1.11 11.369v41.381h-18.581v-38.02c0-5.547-.866-9.717-2.595-12.444-1.725-2.727-4.784-4.097-9.211-4.097-5.003 0-8.614 1.517-10.855 4.505-2.283 2.992-3.385 7.92-3.385 14.766v35.29h-18.588v-93.001h18.588ZM271.59 270.347c-1.156.383-2.427.702-3.74.981-1.356.258-2.77.465-4.241.655a77.588 77.588 0 0 0-4.402.633c-1.388.276-2.773.616-4.09 1.056-1.346.433-2.52 1.016-3.482 1.754a8.575 8.575 0 0 0-2.42 2.798c-.586 1.12-.909 2.581-.909 4.305 0 1.643.323 3.035.909 4.173.616 1.131 1.414 2.012 2.466 2.666 1.042.659 2.266 1.113 3.633 1.364 1.388.279 2.816.379 4.28.379 3.636 0 6.438-.605 8.439-1.814 1.982-1.217 3.485-2.673 4.419-4.366.956-1.697 1.528-3.404 1.718-5.129.243-1.735.354-3.131.354-4.18v-6.917c-.801.708-1.746 1.256-2.934 1.642Zm-36.403-26.203a21.792 21.792 0 0 1 7.254-6.914c2.956-1.757 6.256-2.988 9.96-3.726 3.7-.758 7.39-1.116 11.14-1.116 3.368 0 6.782.236 10.296.715 3.457.476 6.617 1.41 9.487 2.806 2.867 1.403 5.193 3.321 7.004 5.823 1.836 2.444 2.763 5.744 2.763 9.841v35.097c0 3.053.179 5.948.508 8.729.369 2.798 1.317 4.899 2.215 6.273l-18.892-.043c-.555-.805-1.016-2.061-1.231-3.16a27.39 27.39 0 0 1-.454-3.317c-2.942 3.045-6.396 5.185-10.411 6.409a42.078 42.078 0 0 1-12.229 1.811c-3.199 0-6.177-.404-8.968-1.188-2.745-.784-5.186-1.997-7.268-3.64-2.09-1.675-3.694-3.75-4.864-6.266-1.17-2.527-1.771-5.536-1.771-9.011 0-3.837.687-6.993 2.05-9.466 1.321-2.473 3.039-4.459 5.193-5.93 2.119-1.485 4.549-2.598 7.297-3.328a76.68 76.68 0 0 1 8.238-1.768c2.785-.43 5.501-.773 8.21-1.042 2.716-.268 5.067-.647 7.165-1.173 2.075-.519 3.732-1.3 4.953-2.291 1.195-.998 1.778-2.444 1.692-4.377 0-1.989-.354-3.582-.991-4.763a7.272 7.272 0 0 0-2.577-2.727c-1.095-.655-2.319-1.088-3.736-1.317a32.174 32.174 0 0 0-4.591-.326c-3.622 0-6.489.806-8.518 2.352-2.086 1.592-3.289 4.212-3.657 7.873h-18.56c.272-4.37 1.346-7.974 3.293-10.84ZM320.833 234.306v9.391h.415c2.337-3.905 5.358-6.739 9.108-8.496 3.722-1.772 7.573-2.649 11.474-2.649 4.967 0 9.036.648 12.182 1.99 3.206 1.36 5.697 3.203 7.501 5.601 1.846 2.387 3.12 5.304 3.858 8.736.755 3.424 1.123 7.204 1.123 11.369v41.381h-18.598v-38.02c0-5.547-.866-9.717-2.602-12.444-1.761-2.727-4.792-4.477-9.248-4.477-5.031 0-8.699 1.897-10.943 4.885-2.273 2.992-3.389 7.92-3.389 14.766v35.29h-18.399v-67.323h17.518ZM407.65 246.352c-2.97 0-5.425.658-7.401 2.018a15.985 15.985 0 0 0-4.921 5.222c-1.267 2.122-2.133 4.47-2.673 7.039-.508 2.57-.787 5.111-.787 7.641 0 2.444.279 4.917.787 7.447.54 2.52 1.367 4.785 2.541 6.853a14.99 14.99 0 0 0 4.774 5.011c1.983 1.313 4.405 1.964 7.279 1.964 4.448 0 7.859-1.241 10.25-3.704 2.383-2.476 3.857-5.801 4.473-9.97h17.869c-1.228 8.936-4.703 15.754-10.418 20.46-5.737 4.67-13.091 7.039-22.038 7.039-5.053 0-9.652-.859-13.889-2.548-4.23-1.714-7.82-4.073-10.783-7.115-2.959-3.052-5.253-6.677-6.935-10.897-1.643-4.223-2.466-8.857-2.466-13.889 0-5.214.762-10.07 2.283-14.558 1.518-4.474 3.754-8.346 6.742-11.595 2.957-3.271 6.567-5.812 10.844-7.645 4.259-1.821 9.129-2.737 14.591-2.737 4.001 0 7.837.54 11.545 1.553 3.679 1.031 6.992 2.62 9.891 4.76a25.656 25.656 0 0 1 7.122 7.919c1.804 3.153 2.834 6.932 3.117 11.252h-18.13c-1.202-7.684-5.762-11.52-13.667-11.52Z" fill="#87827e" fill-rule="nonzero" class="fill-030404"></path><path d="M98.701 214.87h37.698v9.176H98.701z" fill="#87827e" class="fill-030404"></path><path d="M489.134 250.099c-2.229-2.43-5.98-3.747-10.468-3.747-2.952 0-5.407.497-7.4 1.51-1.915 1.002-3.669 2.244-4.839 3.711-1.181 1.489-2.018 3.064-2.512 4.746-.444 1.639-.748 3.124-.827 4.437h30.319c-.494-4.716-2.068-8.206-4.273-10.657Zm-21.483 35.383c2.774 2.705 6.968 4.065 12.196 4.065 3.726 0 6.947-.941 9.631-2.823 2.687-1.879 4.348-3.887 4.949-5.97h16.287c-2.602 8.106-6.606 13.893-11.985 17.379-5.375 3.496-11.882 5.239-19.526 5.239-5.314 0-10.113-.859-14.358-2.548-4.28-1.714-7.866-4.112-10.858-7.243-2.97-3.143-5.242-6.857-6.856-11.22-1.611-4.341-2.405-9.147-2.405-14.354 0-5.035.823-9.738 2.473-14.086 1.664-4.362 4.033-8.127 7.068-11.284 3.074-3.174 6.67-5.679 10.883-7.512 4.226-1.821 8.925-2.737 14.053-2.737 5.698 0 10.711 1.095 14.938 3.328 4.276 2.204 7.787 5.189 10.511 8.925 2.745 3.729 4.72 7.995 5.922 12.78 1.196 4.778 1.657 9.766 1.314 14.991h-48.8c0 5.326 1.779 10.364 4.563 13.07Z" fill="#87827e" fill-rule="nonzero" class="fill-030404"></path></svg>