<svg viewBox="0 0 164 38" xml:space="preserve" xmlns="http://www.w3.org/2000/svg" fill-rule="evenodd" clip-rule="evenodd" stroke-linejoin="round" stroke-miterlimit="2"><path d="M554.173 744.945v-94.961h56.126v11.906h-44.504v29.197h39.969v11.905h-39.969v29.764h47.622v11.905h-59.244v.284ZM672.378 744.945l-19.276-25.228-19.275 25.228H620.22l26.363-33.732-27.78-34.867h15.307l18.992 26.079 19.276-26.079h15.024l-26.363 34.867 24.945 33.732h-13.606ZM704.693 734.74v46.772h-11.622v-70.016c0-17.858 13.606-36.85 34.866-36.85 21.543 0 37.701 13.606 37.701 36 0 21.826-16.441 36.85-35.15 36.85-9.071 0-21.26-3.968-25.795-12.756Zm48.756-24.094c0-15.307-9.921-24.378-27.496-23.528-8.504.284-21.544 6.52-20.41 28.347.284 7.086 7.654 20.409 23.811 20.409 13.89 0 24.095-7.937 24.095-25.228ZM775.559 745.228v-68.882h11.622v7.371c5.669-6.52 14.457-8.788 23.811-8.788v12.473c-1.417-.284-15.307-1.985-23.811 16.157v41.669h-11.622ZM814.11 710.646c0-19.843 14.173-36 33.733-36 24.377 0 33.448 16.157 33.448 36.85v5.669h-54.425c.851 13.04 12.473 19.843 23.244 19.559 7.937-.283 13.323-2.551 18.992-8.22l7.654 7.937c-7.087 6.803-16.158 11.339-27.213 11.339-20.693-.284-35.433-15.591-35.433-37.134Zm32.882-24.378c-11.055 0-19.559 9.638-20.126 20.126h42.236c0-10.205-7.37-20.126-22.11-20.126ZM887.244 735.307l8.504-7.653c-.283 0 4.252 4.535 4.819 4.818 1.984 1.701 3.968 2.835 6.52 3.402 7.37 1.984 20.693 1.417 21.826-8.787.567-5.67-3.685-8.788-8.504-10.772-6.236-2.268-13.039-3.118-19.275-5.953-7.087-3.118-11.622-8.504-11.622-16.441 0-20.693 29.48-24.094 42.803-14.456.567.566 7.087 6.519 6.803 6.519l-8.504 6.803c-4.252-5.102-8.22-7.653-17.291-7.653-4.536 0-10.772 1.984-11.906 6.803-1.7 6.803 5.953 9.354 11.055 10.772 6.804 1.7 14.174 2.834 20.126 6.519 8.221 5.103 10.205 16.158 7.087 24.662-3.402 9.354-13.606 13.039-22.677 13.323-10.772.567-20.126-2.835-27.78-10.489-.567 0-1.984-1.417-1.984-1.417ZM947.055 735.307l8.504-7.653c-.283 0 4.252 4.535 4.819 4.818 1.984 1.701 3.968 2.835 6.52 3.402 7.37 1.984 20.693 1.417 21.826-8.787.567-5.67-3.685-8.788-8.504-10.772-6.236-2.268-13.039-3.118-19.275-5.953-7.087-3.118-11.622-8.504-11.622-16.441 0-20.693 29.48-24.094 42.803-14.456.567.566 7.087 6.519 6.803 6.519l-8.504 6.803c-4.252-5.102-8.22-7.653-17.291-7.653-4.536 0-10.772 1.984-11.906 6.803-1.7 6.803 5.953 9.354 11.055 10.772 6.804 1.7 14.174 2.834 20.126 6.519 8.221 5.103 10.201 16.158 7.087 24.662-3.402 9.354-13.606 13.039-22.677 13.323-10.772.567-20.126-2.835-27.78-10.489-.567 0-1.984-1.417-1.984-1.417ZM1002.33 676.346v-7.37h-2.55v-1.417h6.8v1.417h-2.55v7.37h-1.7ZM1015.09 676.346v-6.803l-2.56 6.803h-.56l-2.55-6.803v6.803H1008v-8.787h2.27l2.26 5.953 2.27-5.953h2.27v8.787h-1.98Z" transform="matrix(.26458 0 0 .26458 -105.9 -168.825)" fill="#87827e" fill-rule="nonzero" class="fill-e43225"></path><path d="m475.37 744.945-8.504-22.677h-45.921l-8.504 22.677h-12.189l36.85-94.961h13.323l36.567 94.961H475.37Zm-32.031-81.354-17.292 47.055h36l-18.708-47.055ZM494.646 649.984h11.906v94.961h-11.906zM524.409 677.764h11.906v67.181h-11.906zM547.654 655.937v-1.134c-9.071-.283-16.441-7.653-16.725-16.724h-1.701c-.283 9.071-7.653 16.441-16.724 16.724v1.134c9.071.283 16.441 7.654 16.724 16.724h1.701c.284-9.07 7.654-16.441 16.725-16.724Z" transform="matrix(.26458 0 0 .26458 -105.9 -168.825)" fill="#87827e" fill-rule="nonzero" class="fill-f7971d"></path></svg>