<svg viewBox="0 0 569.34 128.45" xmlns="http://www.w3.org/2000/svg"><path d="M336.988 381.32c-43.933 0-79.548 35.616-79.549 79.55v135.735c0 24.837-20.134 44.97-44.97 44.97H59.346v33.7H241.46c43.934 0 79.55-35.616 79.549-79.55V459.988c0-24.836 20.134-44.969 44.97-44.968h155.973v-33.7zM-349.285 381.32v33.7h319.851c25.493 0 46.158 20.665 46.159 46.158 0 25.492-20.666 46.158-46.159 46.158h-240.302c-43.934 0-79.549 35.615-79.55 79.549v88.39h63.571v-89.27c0-24.835 20.135-44.969 44.97-44.968H.439c44.104 0 79.858-35.755 79.857-79.86 0-44.103-35.754-79.856-79.858-79.857Z" transform="matrix(.26458 0 0 .26458 301.272 -75.604)" opacity="1" vector-effect="none" fill="#87827e" fill-opacity="1" fill-rule="evenodd" stroke="none" stroke-width="19.52323532" stroke-linecap="butt" stroke-linejoin="miter" stroke-miterlimit="4" stroke-dasharray="none" stroke-dashoffset="0" stroke-opacity="1" class="fill-000000"></path><path d="M583.213 381.32v109.764c-.001 27.588 22.363 49.953 49.951 49.953h266.168c27.762 0 50.269 22.505 50.27 50.268 0 27.763-22.507 50.27-50.27 50.27h-316.12v33.7h345.993c46.375 0 83.969-37.594 83.969-83.968 0-46.376-37.594-83.971-83.969-83.971H666.861c-11.087 0-20.076-8.989-20.076-20.076v-72.24h354.868v-33.7z" transform="matrix(.26458 0 0 .26458 301.272 -75.604)" opacity="1" vector-effect="none" fill="#87827e" fill-opacity="1" fill-rule="evenodd" stroke="none" stroke-width="15" stroke-linecap="butt" stroke-linejoin="miter" stroke-miterlimit="4" stroke-dasharray="none" stroke-dashoffset="0" stroke-opacity="1" class="fill-000000"></path><path d="M-239.024 75.604v119.838l27.12 8.611V103.532c0-4.698 2.1-7.857 5.486-6.754 4.427 1.224 5.288 5.559 5.288 10.266v40.143c16.912 8.16 30.21-.005 30.21-21.547 0-22.108-7.783-31.914-30.742-39.814-9.037-3.029-25.824-8.094-37.362-10.222" transform="translate(301.272 -75.604)" fill="#87827e" fill-opacity="1" fill-rule="nonzero" stroke="none" stroke-width="4.83765793" class="fill-000000"></path><path d="m-206.767 186.544 43.622-15.553c4.944-1.77 5.708-4.286 1.688-5.597-4.015-1.311-11.291-.929-16.235.837l-29.075 10.246v-16.293l1.674-.561s8.403-2.98 20.202-4.291c11.814-1.282 26.278.169 37.623 4.484 12.8 4.05 14.237 9.995 10.99 14.092-3.26 4.107-11.218 7.04-11.218 7.04l-59.27 21.285zM-288.773 184.886c-13.129-3.7-15.32-11.388-9.341-15.829 5.549-4.107 14.953-7.184 14.953-7.184l38.875-13.811v15.741l-27.976 10.02c-4.949 1.77-5.694 4.285-1.693 5.587 4.03 1.325 11.296.948 16.25-.832l13.42-4.862v14.097c-.857.145-1.8.295-2.67.435-13.43 2.192-27.73 1.282-41.818-3.362" transform="translate(301.272 -75.604)" fill="#87827e" fill-opacity="1" fill-rule="nonzero" stroke="none" stroke-width="4.83765793" class="fill-000000"></path></svg>