<svg id="Layer_1" data-name="Layer 1" xmlns="http://www.w3.org/2000/svg" viewBox="0 0 771.41 466.37"><defs><style>.cls-1,.cls-2{isolation:isolate;}.cls-2{font-size:279.7px;font-family:Montserrat-SemiBold, Montserrat;font-weight:600;letter-spacing:-0.09em;}.cls-2,.cls-5{fill:#464648;}.cls-3{letter-spacing:-0.08em;}.cls-4{fill:#7f8487;}.cls-6{fill:#d9d9d9;}</style></defs><title>Kaiel</title><g id="Kaiel" class="cls-1"><text class="cls-2" transform="translate(0 392.25)">K<tspan class="cls-3" x="178.17" y="0">aiel</tspan></text></g><g class="cls-1"><path class="cls-4" d="M732.29,261.77a14.67,14.67,0,0,1-3.69-10.67,102.09,102.09,0,0,0-95.93-107.59,14.73,14.73,0,1,1,1.69-29.41A131.51,131.51,0,0,1,758,252.79a14.77,14.77,0,0,1-25.73,9Z" transform="translate(-44.13 -56.94)"/></g><g class="cls-1"><path class="cls-5" d="M676,258.5a14.59,14.59,0,0,1-3.69-10.66,45.59,45.59,0,0,0-42.85-48.06,14.73,14.73,0,1,1,1.68-29.41,75,75,0,0,1,70.54,79.19A14.7,14.7,0,0,1,676,258.5Z" transform="translate(-44.13 -56.94)"/></g><g class="cls-1"><path class="cls-6" d="M789.47,265a14.59,14.59,0,0,1-3.69-10.66c5-87.65-62.19-163-149.8-168A14.73,14.73,0,1,1,637.67,57,188.65,188.65,0,0,1,815.23,256.1,14.77,14.77,0,0,1,799.68,270,14.94,14.94,0,0,1,789.47,265Z" transform="translate(-44.13 -56.94)"/></g></svg>