<?xml version="1.0" encoding="utf-8"?>
<!-- Generator: Adobe Illustrator 23.0.5, SVG Export Plug-In . SVG Version: 6.00 Build 0)  -->
<svg version="1.1" id="Layer_1" xmlns="http://www.w3.org/2000/svg" xmlns:xlink="http://www.w3.org/1999/xlink" x="0px" y="0px"
	 viewBox="0 0 771.4 466.4" style="enable-background:new 0 0 771.4 466.4;" xml:space="preserve">
<style type="text/css">
	.st0{fill:#FFFFFF;}
	.st1{font-family:'Montserrat-SemiBold';}
	.st2{font-size:279.7px;}
	.st3{letter-spacing:-25;}
	.st4{letter-spacing:-22;}
</style>
<title>Kaiel</title>
<g id="Kaiel">
	<text transform="matrix(1 0 0 1 0 392.25)" class="st0 st1 st2 st3">K</text>
	<text transform="matrix(1 0 0 1 178.17 392.25)" class="st0 st1 st2 st4">aiel</text>
</g>
<g>
	<path class="st0" d="M688.2,204.8c-2.6-2.9-3.9-6.8-3.7-10.7c3.1-56.2-39.8-104.3-95.9-107.6c-8.1-0.4-14.4-7.3-14-15.4
		s7.3-14.4,15.4-14c0.1,0,0.2,0,0.3,0c72.4,4.2,127.7,66.3,123.6,138.7c-0.5,8.1-7.5,14.4-15.6,13.9
		C694.4,209.5,690.7,207.7,688.2,204.8L688.2,204.8z"/>
</g>
<g>
	<path class="st0" d="M631.9,201.6c-2.6-2.9-3.9-6.8-3.7-10.7c1.4-25.1-17.8-46.6-42.8-48.1c-8.1-0.4-14.4-7.3-14-15.4
		c0.4-8.1,7.3-14.4,15.4-14c0.1,0,0.2,0,0.3,0c41.3,2.4,72.9,37.8,70.5,79.2c-0.4,8.1-7.4,14.3-15.5,13.9
		C638.1,206.3,634.5,204.5,631.9,201.6z"/>
</g>
<g>
	<path class="st0" d="M745.3,208.1c-2.6-2.9-3.9-6.8-3.7-10.7c5-87.6-62.2-163-149.8-168c-8.1,0.1-14.8-6.4-14.9-14.6
		S583.4,0,591.5-0.1c0.7,0,1.4,0,2,0.1c104,6,183.5,95.1,177.6,199.1c-0.5,8.1-7.4,14.3-15.5,13.9C751.6,212.8,748,211,745.3,208.1z
		"/>
</g>
</svg>
